<svg xmlns="http://www.w3.org/2000/svg" viewBox="0 0 1147 925"><defs><style>.cls-1{fill:#dfe7f4;}.cls-2{fill:#121212;}.cls-3{fill:#4ad9a4;}.cls-4{fill:#fff;}.cls-5{font-size:12px;font-family:MyriadPro-Regular, Myriad Pro;}.cls-6{fill:#133346;}.cls-7{fill:#0b64fb;}</style></defs><g id="Layer_2" data-name="Layer 2"><g id="Illustration"><g id="Wave_background" data-name="Wave background"><path class="cls-1" d="M1048,900s-26,7-50-26-49-52-139-18c0,0-58,16-113-37-45.15-43.51-161.72-58.71-301.59,31.27-15.33-5.79-32-15.46-48.41-31.27C341,766,180,755,0,925H1147S1114,871,1048,900Z"/></g><g id="Flight_information" data-name="Flight information"><path class="cls-2" d="M918.18,388H463.37V131.81H918.18Zm-451.81-3H915.18V134.81H466.37Z"/><path class="cls-2" d="M715.63,134.81H492.89V79.92H715.63Zm-219.74-3H712.63V82.92H495.89Z"/><rect class="cls-3" x="669.97" y="88.35" width="38.47" height="37.58"/><polygon class="cls-4" points="683.98 120.3 681.9 118.14 693.31 107.14 681.9 96.14 683.98 93.98 697.63 107.14 683.98 120.3"/><path class="cls-2" d="M521.84,215.77h-29V172.51h29Zm-26-3h23V175.51h-23Z"/><rect class="cls-2" x="533.76" y="177.88" width="90.36" height="3"/><rect class="cls-2" x="534.2" y="187.72" width="303.29" height="3"/><rect class="cls-2" x="534.2" y="197.57" width="303.29" height="3"/><rect class="cls-2" x="534.2" y="207.41" width="303.29" height="3"/><path class="cls-2" d="M521.84,282h-29V238.72h29Zm-26-3h23V241.72h-23Z"/><rect class="cls-2" x="533.76" y="244.09" width="90.36" height="3"/><rect class="cls-2" x="534.2" y="253.93" width="303.29" height="3"/><rect class="cls-2" x="534.2" y="263.77" width="303.29" height="3"/><rect class="cls-2" x="534.2" y="273.61" width="303.29" height="3"/><path class="cls-2" d="M521.84,348.19h-29V304.93h29Zm-26-3h23V307.93h-23Z"/><rect class="cls-2" x="533.76" y="310.29" width="90.36" height="3"/><rect class="cls-2" x="534.2" y="320.14" width="303.29" height="3"/><rect class="cls-2" x="534.2" y="329.98" width="303.29" height="3"/><rect class="cls-2" x="534.2" y="339.82" width="303.29" height="3"/><rect class="cls-2" x="505.42" width="3" height="81.42"/><rect class="cls-2" x="873.13" y="0.45" width="3" height="133.31"/></g><g id="Element"><path class="cls-2" d="M429.79,291.58H279.5V176.08H429.79Zm-147.29-3H426.79V179.08H282.5Z"/><path class="cls-2" d="M414.56,278.33H294.73v-89H414.56Zm-116.83-3H411.56v-83H297.73Z"/><polygon class="cls-2" points="308.15 260.08 337.15 234.08 350.15 245.08 368.15 227.08 401.15 260.08 308.15 260.08"/><circle class="cls-3" cx="348.65" cy="216.58" r="7"/></g><g id="Woman"><path class="cls-2" d="M576.7,364.38s-18.63-3-17.93,15.57,7.48,38.41,7.48,38.41,2.5,11.11-2.55,21.77c0,0,31.42-4.27,36.65-19l-1.27-53.79Z"/><path class="cls-4" d="M584.63,472.6,586.31,422s-28.77,7.6-17.95-47.5c0,0,10.87-11,24.77-4.06a39.49,39.49,0,0,1,18.52,20.08l8.42,77.71Z"/><path class="cls-2" d="M583.08,474.31l1.67-50.56a16.47,16.47,0,0,1-13-4.22c-7.72-7.23-9.35-22.48-4.86-45.34l.08-.45.32-.32c.12-.12,11.81-11.7,26.51-4.34A40.66,40.66,0,0,1,613.06,390l.08.34,8.58,79.18Zm4.8-54.3-1.69,50.89,32.23-4-8.24-76.06a38.45,38.45,0,0,0-17.72-19.09c-11.52-5.77-20.92,1.85-22.72,3.48-5.18,26.78-.66,37.68,4.06,42.1,5.25,4.93,12.06,3.2,12.13,3.18Z"/><path class="cls-2" d="M568.86,372.53s5.22,7.39,11.62,11.32c5.41,3.32,11.91,3.14,14.32,4.49,0,0,6.6,25.72-6.92,49.16,0,0,19.29.26,33.08-17.88a81,81,0,0,1-5.15,8.27s23.4,1,9.21-51.65c-9.19-34.06-49.72-17.52-55.79-11.79Z"/><path class="cls-4" d="M616.83,798.94c10.16,44,20.6,90.17,21.14,96.2.35,3.93-16,12-16,12l37.65-.81L646.23,792.29l-9-76.71H597.39S607,756.25,616.83,798.94Z"/><path class="cls-2" d="M615.23,908.8l6-3c8.07-4,15.17-8.91,15.19-10.54-.43-4.87-7.73-38.06-21.1-96h0c-9.74-42.2-19.34-82.95-19.44-83.36l-.43-1.84h43.08l22.7,193.74Zm3.06-110.19c13.6,58.88,20.72,91.32,21.17,96.4.29,3.21-5.83,7.43-11.23,10.51l29.68-.63-22-187.81H599.29c2,8.43,10.44,44.41,19,81.53Z"/><path class="cls-2" d="M660.53,897l2.2,15.1a6.21,6.21,0,0,1-6.14,7.11h-54a1.36,1.36,0,0,1-.61-2.58l24.46-12.23a1.35,1.35,0,0,1,.84-.13c3.26.55,24.22,3.59,30.76-7.75A1.36,1.36,0,0,1,660.53,897Z"/><path class="cls-2" d="M656.59,920.67h-54a2.86,2.86,0,0,1-1.28-5.42L625.73,903a2.81,2.81,0,0,1,1.75-.27c2.35.4,23.12,3.56,29.22-7a2.86,2.86,0,0,1,5.31,1h0l2.21,15.11a7.72,7.72,0,0,1-7.63,8.82Zm-53.46-3h53.46a4.71,4.71,0,0,0,4.66-5.39l-2.15-14.72c-7.16,11.69-28,8.85-32.11,8.15ZM660.53,897l-1.49.21h0Z"/><path class="cls-4" d="M553.67,907.16l37.64-.81L589.65,797.9l-1.27-82.32H548.53s4.28,35.72,9,75.37c5.51,46.23,11.6,97.79,12.16,104.19C570,899.07,553.67,907.16,553.67,907.16Z"/><path class="cls-2" d="M547,908.8l6-3c8.07-4,15.17-8.91,15.19-10.54-.62-7-7.88-68.25-12.15-104.15-4.72-39.64-9-75.36-9-75.36l-.2-1.68h43l3,193.74Zm3.27-191.72c.9,7.5,4.68,39.1,8.79,73.69,4.28,35.91,11.55,97.2,12.17,104.24.28,3.21-5.83,7.43-11.23,10.51l29.84-.63-2.88-187.81Z"/><path class="cls-2" d="M592.25,897l2.2,15.1a6.21,6.21,0,0,1-6.15,7.11h-54a1.36,1.36,0,0,1-.61-2.58l24.46-12.23a1.33,1.33,0,0,1,.83-.13c3.27.55,24.23,3.59,30.77-7.75A1.36,1.36,0,0,1,592.25,897Z"/><path class="cls-2" d="M588.3,920.67h-54a2.86,2.86,0,0,1-1.28-5.42L557.45,903a2.8,2.8,0,0,1,1.75-.27c2.35.4,23.12,3.56,29.22-7a2.86,2.86,0,0,1,5.31,1h0l2.2,15.11a7.7,7.7,0,0,1-7.63,8.82Zm-53.45-3H588.3a4.71,4.71,0,0,0,4.67-5.39l-2.15-14.72c-7.16,11.69-28,8.85-32.11,8.15ZM592.25,897l-1.49.21h0Z"/><path class="cls-4" d="M646.34,584.74l-96.84,7.45s-13.66,160.83-13,189c0,0,97,21.06,147.11-8.38C683.58,772.83,664.51,651.77,646.34,584.74Z"/><path class="cls-2" d="M607.88,790.11a374.42,374.42,0,0,1-71.73-7.44l-1.16-.25,0-1.18c-.62-28,12.9-187.57,13-189.18l.11-1.27,99.34-7.64.33,1.2c18,66.34,37.09,187,37.28,188.24l.16,1-.89.52C663.32,786.47,634.52,790.11,607.88,790.11ZM538,780c11,2.22,97.67,18.43,144-7.94-1.88-11.79-19.76-122.55-36.72-185.71l-94.33,7.26C549.62,608.59,537.72,750.6,538,780Z"/><path class="cls-3" d="M497.29,479,482,497.18l34,39.14s8.38,6.52,16.76-4.66l22.46-26.42s3.93,22,1,36.34c0,0-7.35,46.62-9.34,60.25,0,0,70.07,19,107.13-7.43l-5.77-39.46,19.32,6.22a14.47,14.47,0,0,0,18.9-12.31c.41-4.46-.15-10.22-2.37-17.65l-22.81-73.09s-2.53-11.09-12-13.46l-31.79-9.82s-23.54,20.82-31.19.46l-31.6,12.49-37.3,49Z"/><text class="cls-5" transform="translate(425.64 831.17)">4AD9A4</text><text class="cls-5" transform="translate(425.64 831.17)">4AD9A4</text><path class="cls-4" d="M566.23,532.65l27.56,7.49,19-2.89,12.1,3.73,3.43-16.44-11.52-1.25-5.51-3.75c-13.53-6.24-28.55,0-28.55,0,3.5,5.62,6.5,2.5,11,3.75s3,3.75,3,3.75l-9,2.49L571.24,527C568.74,527.66,566.23,532.65,566.23,532.65Z"/><path class="cls-2" d="M626.06,542.89l-13.35-4.1-19,2.88-29.63-8.06.82-1.63c.47-.94,3-5.65,6-6.4l.29-.07L587.68,528l7.78-2.15a3.62,3.62,0,0,0-2.08-1.12,10.7,10.7,0,0,0-3.63-.22c-2.56.15-5.46.31-8.26-4.17l-.93-1.5,1.63-.68c.64-.27,15.79-6.43,29.76,0l.21.12,5.21,3.54,12.79,1.39Zm-13.13-7.17,10.86,3.34,2.76-13.21-10.25-1.11-5.72-3.89c-10.06-4.58-21.11-1.92-25.4-.57,1.33,1.41,2.54,1.34,4.4,1.24a13.48,13.48,0,0,1,4.61.32c2.17.61,3.55,1.61,4.1,3a3.54,3.54,0,0,1-.21,3l-.31.51-9.91,2.74-16.49-2.49a9.29,9.29,0,0,0-2.87,3.14l25.37,6.9Z"/><polygon class="cls-4" points="505.38 430.55 443.37 430.55 474.87 513.24 536.88 513.24 505.38 430.55"/><path class="cls-2" d="M539.06,514.74H473.83l-32.64-85.69h65.23Zm-63.16-3h58.81l-30.36-79.69H445.54Z"/><polygon class="cls-2" points="651.53 557.82 621.79 547.07 626.99 522.11 670.25 526.91 669.92 529.9 629.37 525.39 625.26 545.13 652.55 555 651.53 557.82"/><path class="cls-2" d="M554.44,510.29c-3.4-28,7-39.25,7.48-39.72l2.17,2.07c-.1.11-9.88,10.85-6.67,37.29Z"/><rect class="cls-2" x="639.72" y="490.54" width="3" height="35.69" transform="translate(-110.43 184.91) rotate(-15.12)"/><path class="cls-4" d="M448.87,445.5l3.32,8.22,3.6-1.57a6.67,6.67,0,0,1,9,4c1.88,5.85,3,14.63-2.94,22.35,0,0-9.76-.86-14-15C444.87,453.5,445.78,450.19,448.87,445.5Z"/><path class="cls-2" d="M462.55,480.07l-.82-.08c-.44,0-10.82-1.11-15.3-16.06-3.1-10.33-2.19-14.14,1.18-19.26l1.57-2.38,3.82,9.44,2.19-1a8.22,8.22,0,0,1,6.68,0,8,8,0,0,1,4.36,4.87c2,6.3,3.13,15.53-3.18,23.72ZM448.62,448.9c-1.51,3.17-1.6,6.56.68,14.17,3.22,10.71,9.68,13.23,11.91,13.78,4.91-7,3.91-14.81,2.17-20.24a5,5,0,0,0-2.75-3.06,5.22,5.22,0,0,0-4.24,0l-5,2.18Z"/></g><g id="Computer"><path class="cls-2" d="M712.13,444l-10.58,95.24a8.8,8.8,0,0,0,8.74,9.77H851.81a8.79,8.79,0,0,0,8.74-7.83l10.58-95.24a8.79,8.79,0,0,0-8.74-9.76H720.87A8.79,8.79,0,0,0,712.13,444Z"/><path class="cls-4" d="M878.65,445.94l-10.58,95.24a8.79,8.79,0,0,1-8.74,7.83H717.82a8.79,8.79,0,0,1-8.74-9.77L719.66,444a8.78,8.78,0,0,1,8.74-7.82H869.91A8.78,8.78,0,0,1,878.65,445.94Z"/><path class="cls-2" d="M859.33,550.51H717.82a10.28,10.28,0,0,1-10.23-11.44l10.58-95.24a10.26,10.26,0,0,1,10.23-9.15H869.91a10.28,10.28,0,0,1,10.23,11.43l-10.58,95.24A10.27,10.27,0,0,1,859.33,550.51ZM728.4,437.68a7.27,7.27,0,0,0-7.25,6.48l-10.58,95.25a7.29,7.29,0,0,0,7.25,8.1H859.33a7.28,7.28,0,0,0,7.25-6.49l10.58-95.25a7.27,7.27,0,0,0-7.25-8.09Z"/><rect class="cls-2" x="774.43" y="500.11" width="15.04" height="48.89"/><polygon class="cls-4" points="774.43 500.11 805.77 500.11 825.83 574.08 748.1 574.08 748.1 566.56 790.73 566.56 774.43 500.11"/><path class="cls-2" d="M827.79,575.58H746.6V565.06h42.22l-16.3-66.45h34.4Zm-78.19-3h74.27l-19.24-71H776.34l16.3,66.45h-43Z"/><rect class="cls-6" x="753.76" y="537.71" width="2.69" height="4.04"/><rect class="cls-6" x="747.7" y="537.71" width="2.69" height="4.04"/><rect class="cls-6" x="741.65" y="537.71" width="2.69" height="4.04"/><rect class="cls-6" x="735.59" y="537.71" width="2.69" height="4.04"/></g><g id="Table"><polygon class="cls-4" points="320.9 874.17 320.9 923.21 782.01 923.21 782.01 873.88 320.9 874.17"/><path class="cls-2" d="M783.51,924.71H319.4v-52l464.11-.3Zm-461.11-3H780.51V875.38l-458.11.29Z"/><polygon class="cls-2" points="774.61 874.17 774.61 923.21 962.99 923.21 962.99 873.88 774.61 874.17"/><path class="cls-2" d="M964.49,924.71H773.11v-52l191.38-.31Zm-188.38-3H961.49V875.38l-185.38.29Z"/><rect class="cls-4" x="277.55" y="574.41" width="517.25" height="318.36"/><path class="cls-2" d="M796.29,894.27H276V572.91H796.29Zm-517.25-3H793.29V575.91H279Z"/><rect class="cls-4" x="775.02" y="573.9" width="210.44" height="319.36"/><path class="cls-2" d="M987,894.76H773.52V572.4H987Zm-210.44-3H984V575.4H776.52Z"/><polygon class="cls-4" points="264.65 573.97 264.65 598.26 794.79 598.26 794.79 573.82 264.65 573.97"/><path class="cls-2" d="M796.29,599.76H263.15V572.47l533.14-.15Zm-530.14-3H793.29V575.32l-527.14.15Z"/><polygon class="cls-2" points="775.96 573.97 775.96 598.26 1013.45 598.26 1013.45 573.82 775.96 573.97"/><path class="cls-2" d="M1015,599.76H774.46V572.47l240.49-.15Zm-237.49-3H1012V575.32l-234.49.15Z"/><polygon class="cls-2" points="716.37 716 677.87 716 677.87 713 713.37 713 713.37 703.5 716.37 703.5 716.37 716"/><polygon class="cls-2" points="716.37 750 677.87 750 677.87 747 713.37 747 713.37 737.5 716.37 737.5 716.37 750"/><polygon class="cls-2" points="738.37 732 699.87 732 699.87 729 735.37 729 735.37 719.5 738.37 719.5 738.37 732"/><polygon class="cls-2" points="694.37 732 655.87 732 655.87 729 691.37 729 691.37 719.5 694.37 719.5 694.37 732"/><polygon class="cls-2" points="566.37 756 527.87 756 527.87 753 563.37 753 563.37 743.5 566.37 743.5 566.37 756"/><polygon class="cls-2" points="469.37 715 430.87 715 430.87 712 466.37 712 466.37 702.5 469.37 702.5 469.37 715"/><polygon class="cls-2" points="637.37 834 598.87 834 598.87 831 634.37 831 634.37 821.5 637.37 821.5 637.37 834"/><polygon class="cls-2" points="542.37 774 503.87 774 503.87 771 539.37 771 539.37 761.5 542.37 761.5 542.37 774"/></g><g id="Man"><path class="cls-4" d="M379.59,446.5l2-23.88s25.17,2.47,12-50.21H357.71l-8.88,74.09Z"/><path class="cls-2" d="M381,448H347.14l9.24-77.09h38.38L395,372c5.74,23,5.11,38.72-1.88,46.83A14.83,14.83,0,0,1,383,424.11Zm-30.45-3h27.69l2-24,1.52.15a11.51,11.51,0,0,0,9.2-4.28c4.25-5,7.91-16.47,1.47-42.94H359Z"/><path class="cls-2" d="M385.53,398.75s-.53-8.75-8.41-5.59c-3.46,1.39-3.12,8.84,1.65,13.82,0,0-2.07,11.86-16.88,11.41-12.89-.39-14.53-8.64-14.53-8.64s-7.76-19.23-1.17-38.17c0,0,2.63-16.2,28.81-13.58,7.22.72,14.69-2.33,17.35-6.25a4.69,4.69,0,0,1,6.76-1.16c5.16,4,11.19,11.48,7.65,23.64,0,0-1.65,8.41-15.65,10.88L388,398Z"/><polygon class="cls-4" points="384.92 873.4 377.04 903.54 355.88 903.54 360.65 873.4 384.92 873.4"/><path class="cls-2" d="M378.2,905H354.12l5.25-33.14h27.49Zm-20.57-3h18.25L383,874.9h-21Z"/><path class="cls-4" d="M413.26,923s3.1-5.43-3.1-9.3c0,0-25.14-10.86-32.12-19,0,0-9.25,9.69-22.3,0L349.45,923Z"/><path class="cls-2" d="M414.13,924.53H347.58l7.2-32.38,1.86,1.37c11.77,8.75,20,.52,20.32.17l1.14-1.18,1.08,1.24c6.67,7.79,31.32,18.49,31.57,18.6l.2.1c5.88,3.68,4.93,9,3.61,11.33Zm-62.81-3h61c.44-1.35.78-4.17-2.83-6.47-1.95-.85-23.54-10.34-31.53-18.26-2.92,2.25-10.91,6.88-21.2.42Z"/><polygon class="cls-4" points="297.93 873.4 290.66 902.54 268.5 902.54 272.67 873.4 297.93 873.4"/><path class="cls-2" d="M291.83,904H266.77l4.6-32.14h28.48Zm-21.6-3h19.26L296,874.9H274Z"/><path class="cls-4" d="M326.73,923s3.1-5.43-3.1-9.3c0,0-25.14-10.86-32.12-19,0,0-9.25,9.69-22.3,0L261.92,923Z"/><path class="cls-2" d="M327.6,924.53H260l8.33-32.34,1.8,1.33c11.77,8.75,20,.52,20.32.17l1.14-1.18,1.08,1.24c6.67,7.79,31.32,18.49,31.57,18.6l.2.1c5.88,3.68,4.93,9,3.61,11.33Zm-63.75-3h61.9c.44-1.35.78-4.17-2.83-6.47-1.95-.85-23.54-10.34-31.53-18.26-2.92,2.25-10.94,6.9-21.26.38Z"/><path class="cls-4" d="M300.87,482.5l-8.26,50.34a14.67,14.67,0,0,0,7.91,15.49l50.35,25.17,7-23-25.76-28,4-29.12L338,479.85Z"/><path class="cls-2" d="M351.78,575.64l-51.93-26a16.09,16.09,0,0,1-8.72-17.07l8.45-51.51,40.17-2.87L333.69,522l25.86,28.14Zm-49.63-91.73-8.06,49.18A13.1,13.1,0,0,0,301.2,547L350,571.36l6.23-20.48L330.52,523l5.75-41.49Z"/><path class="cls-7" d="M264.28,885.77h41.46s50.44-162.51,52-175.87l-13,175.87h44.93L418,697l-9.34-115.54S309.25,572.28,308,576c-6.94,20.59-6.63,40-7.26,72.65L303.37,711S262.84,885.77,264.28,885.77Z"/><path class="cls-4" d="M300.5,598.5s25,10,52,10c47,0,60.37-7,60.37-7l-5-101h16c-4-17-11.75-36.29-17-47-9.57-19.46-20-22-25-25-2-1.21-30.86-3.07-30.86-3.07-6.51.73-22.23,3.33-35.3,19.72-9.84,12.35-18.84,42.35-18.84,42.35l19.21.67Z"/><path class="cls-2" d="M352.5,610c-27,0-52.31-10-52.56-10.11l-1.09-.43,15.51-109.85-19.49-.68.56-1.86c.37-1.24,9.2-30.42,19.11-42.86,9.42-11.81,21.63-18.63,36.3-20.27h.26c8.78.56,29.43,2,31.54,3.27.72.44,1.59.87,2.59,1.38,5.49,2.75,14.68,7.35,23,24.25a249.09,249.09,0,0,1,17.12,47.32l.43,1.84H409.44l5,100.38-.85.45C413,603.12,399.33,610,352.5,610Zm-50.35-12.48c5.09,1.88,27.1,9.48,50.35,9.48,39.58,0,55.2-5,58.82-6.46l-5-101.54H422a248.68,248.68,0,0,0-16.44-44.84c-7.86-16-16.14-20.14-21.63-22.89-1-.51-2-1-2.8-1.48-1.6-.69-16.67-2-30-2.85-13.79,1.57-25.28,8-34.16,19.14-8.15,10.23-15.86,33.28-18,40l18.92.66Z"/><path class="cls-4" d="M383.69,501.06l3.14,8.92,14.69,41.8a15.22,15.22,0,0,0,12.09,10.46l70,11.26H530l-3.68-4.29a13.84,13.84,0,0,0-5.93-4l-24.22-8.4a10.23,10.23,0,0,0-4.49-.5l-11.13,1.26-54.42-21.6-8.77-33.09-.69-2.6Z"/><path class="cls-2" d="M533.28,575l-49.91,0-70-11.26a16.61,16.61,0,0,1-13.29-11.49l-18.5-52.62,36.24-.89,9.56,36.1L480.77,556l10.75-1.21a11.74,11.74,0,0,1,5.15.57l24.22,8.41a15.18,15.18,0,0,1,6.58,4.47Zm-49.55-3h43l-1.56-1.81a12.31,12.31,0,0,0-5.28-3.59l-24.22-8.4a8.76,8.76,0,0,0-3.83-.43l-11.5,1.3-.35-.14-55.13-21.88-9.34-35.27-29.75.72,17.14,48.79a13.67,13.67,0,0,0,10.92,9.47Z"/><rect class="cls-2" x="378.87" y="480.91" width="3" height="21.19" transform="translate(-141.01 153.25) rotate(-19.29)"/><path class="cls-4" d="M318.87,467.5,316,488.26Z"/><rect class="cls-2" x="306.96" y="476.38" width="20.96" height="3" transform="translate(-199.1 727.53) rotate(-82.2)"/><path class="cls-4" d="M351.26,622.3l6.18,88.83Z"/><rect class="cls-2" x="352.85" y="622.19" width="3" height="89.05" transform="translate(-45.47 26.23) rotate(-3.98)"/></g><g id="Suitcase"><circle class="cls-2" cx="139.46" cy="914.42" r="7.87"/><circle class="cls-2" cx="161.8" cy="914.63" r="7.87"/><circle class="cls-2" cx="213.49" cy="914.42" r="7.87"/><path class="cls-2" d="M211.09,733.82h-5V663.49a9.71,9.71,0,0,0-9.69-9.7H169.74a9.71,9.71,0,0,0-9.7,9.7v70.33h-5V663.49a14.71,14.71,0,0,1,14.7-14.7H196.4a14.71,14.71,0,0,1,14.69,14.7Z"/><circle class="cls-2" cx="235.82" cy="914.63" r="7.87"/><path class="cls-2" d="M155.42,727H238.8A17.32,17.32,0,0,1,256,744.4V895.63A17.32,17.32,0,0,1,238.8,913H155.42a17.31,17.31,0,0,1-17.23-17.4V744.4A17.31,17.31,0,0,1,155.42,727Z"/><path class="cls-4" d="M232.84,746.05V895.8A17.22,17.22,0,0,1,215.61,913H132.23A17.22,17.22,0,0,1,115,896.34c0-.18,0-.36,0-.54V746.05c0-.39,0-.78,0-1.17a17.22,17.22,0,0,1,17.19-16.06h83.38A17.23,17.23,0,0,1,232.84,746.05Z"/><path class="cls-2" d="M215.61,914.53H132.23a18.63,18.63,0,0,1-18.72-18.15c0-.24,0-.41,0-.58V746.05c0-.42,0-.84,0-1.26a18.78,18.78,0,0,1,18.69-17.47h83.38a18.75,18.75,0,0,1,18.73,18.73V895.8A18.75,18.75,0,0,1,215.61,914.53ZM132.23,730.32A15.77,15.77,0,0,0,116.53,745c0,.36,0,.72,0,1.07V896.24a15.65,15.65,0,0,0,15.72,15.29h83.38a15.74,15.74,0,0,0,15.73-15.73V746.05a15.75,15.75,0,0,0-15.73-15.73Z"/><rect class="cls-4" x="115" y="751.69" width="98.27" height="141.24" rx="11.7"/><path class="cls-2" d="M201.57,894.43H126.7a13.21,13.21,0,0,1-13.2-13.2V763.39a13.21,13.21,0,0,1,13.2-13.2h74.87a13.21,13.21,0,0,1,13.2,13.2V881.23A13.21,13.21,0,0,1,201.57,894.43ZM126.7,753.19a10.22,10.22,0,0,0-10.2,10.2V881.23a10.21,10.21,0,0,0,10.2,10.2h74.87a10.2,10.2,0,0,0,10.2-10.2V763.39a10.21,10.21,0,0,0-10.2-10.2Z"/><path class="cls-7" d="M192.11,764.88h0a4.06,4.06,0,0,1,4.06,4.06V879.09a4.06,4.06,0,0,1-4.06,4.06h0a4.06,4.06,0,0,1-4.06-4.06V768.94A4.06,4.06,0,0,1,192.11,764.88Z"/><path class="cls-7" d="M172.11,764.88h0a4.07,4.07,0,0,1,4.07,4.06V879.09a4.07,4.07,0,0,1-4.07,4.06h0a4.06,4.06,0,0,1-4.06-4.06V768.94A4.06,4.06,0,0,1,172.11,764.88Z"/><path class="cls-7" d="M152.12,764.88h0a4.06,4.06,0,0,1,4.06,4.06V879.09a4.06,4.06,0,0,1-4.06,4.06h0a4.06,4.06,0,0,1-4.06-4.06V768.94A4.06,4.06,0,0,1,152.12,764.88Z"/><path class="cls-7" d="M132.12,764.88h0a4.06,4.06,0,0,1,4.06,4.06V879.09a4.06,4.06,0,0,1-4.06,4.06h0a4.06,4.06,0,0,1-4.06-4.06V768.94A4.06,4.06,0,0,1,132.12,764.88Z"/><path class="cls-3" d="M197.53,651.5h0a4.47,4.47,0,0,1-4.46,4.47h-20a4.47,4.47,0,0,1-4.47-4.47h0a4.47,4.47,0,0,1,4.47-4.46h20A4.46,4.46,0,0,1,197.53,651.5Z"/></g><g id="Underline"><rect class="cls-2" x="91" y="922" width="930" height="3"/></g></g></g></svg>